<?xml version="1.0" encoding="UTF-8"?>
<svg width="32" height="32" viewBox="0 0 32 32" fill="none" xmlns="http://www.w3.org/2000/svg">
  <rect width="32" height="32" rx="8" fill="#0A0E27"/>
  <defs>
    <linearGradient id="bluesky-favicon-gradient" x1="0%" y1="0%" x2="100%" y2="100%">
      <stop offset="0%" stop-color="#00A8E8"/>
      <stop offset="100%" stop-color="#007EA7"/>
    </linearGradient>
  </defs>
  <path d="M16 6C13.5 6 11 9 11 12.5C11 16 13.5 21 16 21C18.5 21 21 16 21 12.5C21 9 18.5 6 16 6Z" fill="url(#bluesky-favicon-gradient)"/>
  <path d="M16 21C13.5 21 11 23.5 11 26C11 26.8284 11.6716 27.5 12.5 27.5C13.3284 27.5 14 26.8284 14 26C14 25.4477 14.4477 25 15 25H17C17.5523 25 18 25.4477 18 26C18 26.8284 18.6716 27.5 19.5 27.5C20.3284 27.5 21 26.8284 21 26C21 23.5 18.5 21 16 21Z" fill="url(#bluesky-favicon-gradient)"/>
</svg>